<?xml version="1.0" encoding="utf-8"?>
<!-- Generator: Adobe Illustrator 22.0.0, SVG Export Plug-In . SVG Version: 6.00 Build 0)  -->
<svg version="1.1" id="Layer_1" xmlns="http://www.w3.org/2000/svg" xmlns:xlink="http://www.w3.org/1999/xlink" x="0px" y="0px"
	 viewBox="0 0 512 512" style="enable-background:new 0 0 512 512;" xml:space="preserve">
<style type="text/css">
	.st0{fill:#FCB800;}
</style>
<path class="st0" d="M256,445.9c59.2,0,107.4-48.2,107.4-107.4S315.2,231.2,256,231.2s-107.4,48.2-107.4,107.4
	S196.8,445.9,256,445.9z M165.6,330.3c1.7-18.9,9.2-36.1,20.7-49.8l11.4,11.4l11.7-11.7l-11.4-11.4c13.8-11.5,31-18.9,49.8-20.7
	v16.1h16.5v-16.1c18.9,1.7,36.1,9.2,49.8,20.7l-11.4,11.4l11.7,11.7l11.4-11.4c11.5,13.8,18.9,31,20.7,49.8h-16.1v16.5h16.1
	c-1.7,18.9-9.2,36.1-20.7,49.8l-11.4-11.4L302.7,397l11.4,11.4c-13.8,11.5-31,18.9-49.8,20.7v-16.1h-16.5V429
	c-18.9-1.7-36.1-9.2-49.8-20.7l11.4-11.4l-11.7-11.7l-11.4,11.4c-11.5-13.8-18.9-31-20.7-49.8h16.1v-16.5H165.6z"/>
<path class="st0" d="M223,300.4v76.3l76.3-38.1L223,300.4z M239.5,327.2l22.8,11.4L239.5,350V327.2z"/>
<path class="st0" d="M241.8,17c-12.4,8.4-22.9,19.6-30.6,33.2c-4.2-0.7-8.6-1.2-13-1.2c-32,0-60.2,20.7-70.3,50.3
	c-1.3-0.1-2.7-0.2-4-0.2c-36.4,0-66.1,29.6-66.1,66.1s29.6,66.1,66.1,66.1h13.6c0.7,0.9,1.4,1.9,2.2,2.7l11.5,11.5
	c-22.1,24.8-35.6,57.4-35.6,93.1c0,77.4,63,140.4,140.4,140.4s140.4-63,140.4-140.4c0-35.7-13.5-68.3-35.6-93.1l11.5-11.5
	c0.8-0.8,1.5-1.8,2.2-2.7h13.6c36.4,0,66.1-29.6,66.1-66.1c0-33.5-25.1-61.3-57.8-65.5c0-0.2,0-0.4,0-0.6c0-15.9-3.9-30.9-10.5-44.2
	c-6.7-13.3-27-33.3-27-33.3C342,8.1,320.6,0,297.3,0c-5.4,0-10.6,0.5-15.8,1.3C273,0.5,241.8,17,241.8,17 M379.9,99.1
	c0,2.5-0.2,5-0.4,7.5l-0.4,9h9.1c27.3,0,49.5,22.2,49.5,49.5s-22.2,49.5-49.5,49.5h-8.4c-0.5-13.7-11.8-24.8-25.7-24.8
	c-6.8,0-13.4,2.8-18.2,7.5l-16.2,16.2c-12.1-6.2-25.2-10.7-38.9-13.1v-18.8c9.1,0,16.5-7.4,16.5-16.5v-16.5
	c0-9.1-7.4-16.5-16.5-16.5h-49.5c-9.1,0-16.5,7.4-16.5,16.5v16.5c0,9.1,7.4,16.5,16.5,16.5v18.8c-13.8,2.5-26.9,6.9-38.9,13.1
	l-16.2-16.2c-4.8-4.8-11.4-7.5-18.2-7.5c-13.9,0-25.1,11-25.7,24.8h-8.4c-27.3,0-49.5-22.2-49.5-49.5s22.2-49.5,49.5-49.5
	s49.5,22.2,49.5,49.5h16.5c0-29.3-19.2-54.2-45.6-62.8c8.5-21.8,29.8-36.9,53.9-36.9c29.2,0,53.8,21.8,57.4,50.7l16.4-2
	c-3.3-26.8-20.8-48.9-44.4-59.1c15.1-23.9,41.1-38.6,69.7-38.6C342.8,16.5,379.9,53.6,379.9,99.1z M162.9,233.8l-11.5-11.5
	c-1.8-1.8-2.7-4.1-2.7-6.5c0-5.1,4.2-9.3,9.3-9.3c2.4,0,4.8,1,6.5,2.7l13.1,13.1C172.4,225.7,167.5,229.7,162.9,233.8z M256,214.7
	c68.3,0,123.9,55.6,123.9,123.9S324.3,462.5,256,462.5s-123.9-55.6-123.9-123.9S187.7,214.7,256,214.7z M231.2,165.2v-16.5h49.5
	v16.5H231.2z M264.3,181.7v16.9c-2.8-0.2-5.5-0.4-8.3-0.4c-2.8,0-5.5,0.3-8.3,0.4v-16.9H264.3z M349.1,233.8
	c-4.6-4.1-9.5-8.1-14.6-11.6l13.1-13.1c1.7-1.7,4.1-2.7,6.5-2.7c5.1,0,9.3,4.2,9.3,9.3c0,2.5-1,4.8-2.7,6.5L349.1,233.8z"/>
</svg>
