<?xml version="1.0"?>
<svg xmlns="http://www.w3.org/2000/svg" height="512px" viewBox="0 0 496 496" width="512px"><path d="m248 432c57.34375 0 104-46.65625 104-104s-46.65625-104-104-104-104 46.65625-104 104 46.65625 104 104 104zm-87.59375-112c1.65625-18.265625 8.890625-34.929688 20.007812-48.273438l11.019532 11.015626 11.308594-11.308594-11.015626-11.019532c13.335938-11.125 30.007813-18.351562 48.273438-20.007812v15.59375h16v-15.59375c18.265625 1.65625 34.929688 8.890625 48.273438 20.007812l-11.015626 11.019532 11.308594 11.308594 11.019532-11.015626c11.125 13.335938 18.351562 30.007813 20.007812 48.273438h-15.59375v16h15.59375c-1.65625 18.265625-8.890625 34.929688-20.007812 48.273438l-11.019532-11.015626-11.308594 11.308594 11.015626 11.019532c-13.335938 11.125-30.007813 18.351562-48.273438 20.007812v-15.59375h-16v15.59375c-18.265625-1.65625-34.929688-8.890625-48.273438-20.007812l11.015626-11.019532-11.308594-11.308594-11.019532 11.015626c-11.125-13.335938-18.351562-30.007813-20.007812-48.273438h15.59375v-16zm0 0" fill="#fcb800"/><path d="m216 291.054688v73.890624l73.886719-36.945312zm16 25.890624 22.113281 11.054688-22.113281 11.054688zm0 0" fill="#fcb800"/><path d="m347.664062 20.929688c-16.398437-13.066407-37.121093-20.929688-59.664062-20.929688-5.191406 0-10.296875.457031-15.304688 1.257812-8.246093-.816406-16.542968-1.257812-24.695312-1.257812-136.753906 0-248 111.257812-248 248 0 136.753906 111.246094 248 248 248s248-111.246094 248-248c0-98.441406-58.207031-187.464844-148.335938-227.070312zm20.335938 75.070312c0 2.464844-.160156 4.886719-.375 7.289062l-.394531 8.710938h8.769531c26.472656 0 48 21.527344 48 48s-21.527344 48-48 48h-8.097656c-.519532-13.3125-11.4375-24-24.871094-24-6.574219 0-13.007812 2.664062-17.65625 7.3125l-15.65625 15.65625c-11.703125-5.992188-24.367188-10.320312-37.71875-12.710938v-18.257812c8.824219 0 16-7.175781 16-16v-16c0-8.824219-7.175781-16-16-16h-48c-8.824219 0-16 7.175781-16 16v16c0 8.824219 7.175781 16 16 16v18.246094c-13.351562 2.394531-26.015625 6.722656-37.71875 12.714844l-15.65625-15.65625c-4.648438-4.640626-11.082031-7.304688-17.65625-7.304688-13.433594 0-24.351562 10.6875-24.871094 24h-8.097656c-26.472656 0-48-21.527344-48-48s21.527344-48 48-48 48 21.527344 48 48h16c0-28.375-18.574219-52.464844-44.191406-60.824219 8.230468-21.160156 28.871094-35.742187 52.191406-35.742187 28.246094 0 52.152344 21.109375 55.585938 49.109375l15.871093-1.949219c-3.191406-26.007812-20.136719-47.335938-42.976562-57.210938 14.609375-23.160156 39.777343-37.382812 67.519531-37.382812 44.113281 0 80 35.886719 80 80zm-210.199219 130.488281-11.175781-11.175781c-1.695312-1.695312-2.625-3.945312-2.625-6.34375 0-4.945312 4.023438-8.96875 8.96875-8.96875 2.359375 0 4.671875.960938 6.34375 2.625l12.664062 12.664062c-5 3.382813-9.671874 7.199219-14.175781 11.199219zm90.199219-18.488281c66.167969 0 120 53.832031 120 120s-53.832031 120-120 120-120-53.832031-120-120 53.832031-120 120-120zm-24-48v-16h48v16zm32 16v16.40625c-2.664062-.160156-5.296875-.40625-8-.40625s-5.335938.246094-8 .40625v-16.40625zm82.199219 50.488281c-4.496094-4-9.167969-7.824219-14.167969-11.207031l12.664062-12.664062c1.664063-1.65625 3.976563-2.617188 6.335938-2.617188 4.945312 0 8.96875 4.023438 8.96875 8.96875 0 2.398438-.929688 4.648438-2.625 6.34375zm-90.199219 253.511719c-127.921875 0-232-104.078125-232-232 0-123.304688 96.703125-224.40625 218.238281-231.558594-12.023437 8.125-22.214843 19.023438-29.664062 32.117188-4.09375-.71875-8.285157-1.125-12.574219-1.125-30.992188 0-58.289062 20.054687-68.097656 48.765625-1.292969-.078125-2.582032-.199219-3.902344-.199219-35.289062 0-64 28.710938-64 64s28.710938 64 64 64h13.152344c.6875.894531 1.34375 1.816406 2.160156 2.625l11.175781 11.175781c-21.375 24.039063-34.488281 55.574219-34.488281 90.199219 0 74.992188 61.007812 136 136 136s136-61.007812 136-136c0-34.625-13.113281-66.160156-34.488281-90.199219l11.175781-11.175781c.816406-.816406 1.472656-1.730469 2.160156-2.625h13.152344c35.289062 0 64-28.710938 64-64 0-32.472656-24.304688-59.375-56-63.449219 0-.183593 0-.367187 0-.550781 0-15.398438-3.734375-29.902344-10.199219-42.816406 65.472657 42.28125 106.199219 115.222656 106.199219 194.816406 0 127.921875-104.078125 232-232 232zm0 0" fill="#fcb800"/></svg>
